<svg width="513" height="171" viewBox="0 0 513 171" fill="none" xmlns="http://www.w3.org/2000/svg">
<path d="M157.65 102V43.5H172.95V88.68H202.38V102H157.65ZM210.436 102V57H225.556V102H210.436ZM210.256 44.58C210.256 39.9 213.316 36.93 217.996 36.93C222.676 36.93 225.646 39.9 225.646 44.58C225.646 49.35 222.676 52.23 217.996 52.23C213.316 52.23 210.256 49.35 210.256 44.58ZM281.24 70.95V73.74H265.58C265.04 71.13 261.62 68.61 257.84 68.61C254.24 68.61 251.63 69.69 251.63 72.03C251.63 79.05 281.78 71.94 281.78 88.77C281.78 97.05 273.14 103.08 259.1 103.08C247.67 103.08 237.32 97.5 234.35 88.32V85.53H250.01C251 88.77 254.87 90.93 258.65 90.93C263.06 90.93 265.49 89.31 265.49 87.42C265.49 81.93 235.7 87.87 235.7 70.77C235.7 62.67 244.7 55.92 257.66 55.92C270.26 55.92 278.54 62.49 281.24 70.95ZM286.802 57H302.372L312.272 83.19H312.812L322.082 57H336.572V59.88L320.282 102.18C316.772 111.27 312.002 116.85 296.072 116.85V102.45C299.492 102.45 301.832 102.27 303.362 101.64L286.802 59.88V57ZM390.464 57V102H375.344V97.77C371.834 101.19 367.244 103.08 361.934 103.08C350.324 103.08 341.864 93.9 341.864 79.5C341.864 65.1 350.324 55.92 361.934 55.92C367.244 55.92 371.834 57.9 375.344 61.32V57H390.464ZM366.524 88.86C372.194 88.86 375.884 85.35 375.884 79.5C375.884 73.65 372.194 70.14 366.524 70.14C360.854 70.14 357.164 73.65 357.164 79.5C357.164 85.35 360.854 88.86 366.524 88.86ZM402.919 102V57H418.039V61.68C421.369 58.08 426.049 55.92 431.449 55.92C445.219 55.92 449.719 66.27 449.719 78.69V102H434.599V78.87C434.599 73.92 431.629 70.14 426.859 70.14C421.459 70.14 418.219 73.47 418.039 79.05V102H402.919Z" fill="black"/>
<line x1="29" y1="148" x2="452" y2="148" stroke="#00A2FF" stroke-width="2"/>
<path d="M133.214 85.3891C129.678 97.7352 121.595 108.279 110.597 114.895C99.5993 121.51 86.504 123.704 73.9533 121.034C61.4025 118.364 50.3304 111.029 42.9705 100.509C35.6106 89.9882 32.5106 77.0652 34.296 64.3467C36.0813 51.6281 42.6191 40.0607 52.5904 31.9777C62.5617 23.8948 75.2246 19.8979 88.0243 20.7935C100.824 21.6891 112.808 27.4104 121.559 36.8032C130.31 46.1961 135.177 58.5615 135.177 71.405" stroke="black" stroke-width="3.27596" stroke-linecap="round" stroke-linejoin="round"/>
<path d="M47.4736 89.8311H121.689" stroke="black" stroke-width="3.27596" stroke-linecap="round" stroke-linejoin="round"/>
<path d="M135.211 71.4785H33.8359" stroke="black" stroke-width="3.27596" stroke-linecap="round" stroke-linejoin="round"/>
<path d="M85.0312 61.4766V121.87" stroke="black" stroke-width="3.27596" stroke-linecap="round" stroke-linejoin="round"/>
<path d="M111.984 28.7803L85.0312 61.4786" stroke="black" stroke-width="3.27596" stroke-linecap="round" stroke-linejoin="round"/>
<path d="M57.2402 28.6436L85.0332 61.4778" stroke="black" stroke-width="3.27596" stroke-linecap="round" stroke-linejoin="round"/>
</svg>
