<svg width="284" height="141" viewBox="0 0 284 141" fill="none" xmlns="http://www.w3.org/2000/svg">
<g clip-path="url(#clip0_61_72)">
<rect width="284" height="141" fill="white"/>
<path d="M69.2867 94V51.75H80.3367V84.38H101.592V94H69.2867ZM107.41 94V61.5H118.33V94H107.41ZM107.28 52.53C107.28 49.15 109.49 47.005 112.87 47.005C116.25 47.005 118.395 49.15 118.395 52.53C118.395 55.975 116.25 58.055 112.87 58.055C109.49 58.055 107.28 55.975 107.28 52.53ZM158.546 71.575V73.59H147.236C146.846 71.705 144.376 69.885 141.646 69.885C139.046 69.885 137.161 70.665 137.161 72.355C137.161 77.425 158.936 72.29 158.936 84.445C158.936 90.425 152.696 94.78 142.556 94.78C134.301 94.78 126.826 90.75 124.681 84.12V82.105H135.991C136.706 84.445 139.501 86.005 142.231 86.005C145.416 86.005 147.171 84.835 147.171 83.47C147.171 79.505 125.656 83.795 125.656 71.445C125.656 65.595 132.156 60.72 141.516 60.72C150.616 60.72 156.596 65.465 158.546 71.575ZM162.563 61.5H173.808L180.958 80.415H181.348L188.043 61.5H198.508V63.58L186.743 94.13C184.208 100.695 180.763 104.725 169.258 104.725V94.325C171.728 94.325 173.418 94.195 174.523 93.74L162.563 63.58V61.5ZM237.43 61.5V94H226.51V90.945C223.975 93.415 220.66 94.78 216.825 94.78C208.44 94.78 202.33 88.15 202.33 77.75C202.33 67.35 208.44 60.72 216.825 60.72C220.66 60.72 223.975 62.15 226.51 64.62V61.5H237.43ZM220.14 84.51C224.235 84.51 226.9 81.975 226.9 77.75C226.9 73.525 224.235 70.99 220.14 70.99C216.045 70.99 213.38 73.525 213.38 77.75C213.38 81.975 216.045 84.51 220.14 84.51ZM246.425 94V61.5H257.345V64.88C259.75 62.28 263.13 60.72 267.03 60.72C276.975 60.72 280.225 68.195 280.225 77.165V94H269.305V77.295C269.305 73.72 267.16 70.99 263.715 70.99C259.815 70.99 257.475 73.395 257.345 77.425V94H246.425Z" fill="black"/>
<line x1="4" y1="103" x2="284" y2="103" stroke="#00A2FF" stroke-width="2"/>
<path d="M50.0038 75.4466C48.3413 81.4392 44.5415 86.5571 39.371 89.768C34.2005 92.9789 28.044 94.0439 22.1435 92.748C16.2431 91.4521 11.0377 87.8918 7.57762 82.7853C4.1175 77.6789 2.66012 71.4063 3.49946 65.233C4.3388 59.0597 7.41239 53.4451 12.1002 49.5218C16.788 45.5985 22.7412 43.6585 28.7588 44.0932C34.7763 44.5279 40.4104 47.3049 44.5245 51.864C48.6386 56.4231 50.9265 62.425 50.9266 68.659" stroke="black" stroke-width="3.27596" stroke-linecap="round" stroke-linejoin="round"/>
<path d="M9.69531 77.6035H44.5861" stroke="black" stroke-width="3.27596" stroke-linecap="round" stroke-linejoin="round"/>
<path d="M50.9424 68.6943H3.2832" stroke="black" stroke-width="3.27596" stroke-linecap="round" stroke-linejoin="round"/>
<path d="M27.3516 63.8398V93.1537" stroke="black" stroke-width="3.27596" stroke-linecap="round" stroke-linejoin="round"/>
<path d="M40.023 47.9697L27.3516 63.8409" stroke="black" stroke-width="3.27596" stroke-linecap="round" stroke-linejoin="round"/>
<path d="M14.2861 47.9033L27.3524 63.8404" stroke="black" stroke-width="3.27596" stroke-linecap="round" stroke-linejoin="round"/>
</g>
<defs>
<clipPath id="clip0_61_72">
<rect width="284" height="141" fill="white"/>
</clipPath>
</defs>
</svg>
